<?xml version="1.0" encoding="utf-8"?>
<!-- Generator: Adobe Illustrator 24.0.1, SVG Export Plug-In . SVG Version: 6.00 Build 0)  -->
<svg version="1.1" baseProfile="basic" id="Layer_1"
	 xmlns="http://www.w3.org/2000/svg" xmlns:xlink="http://www.w3.org/1999/xlink" x="0px" y="0px" viewBox="0 0 700 458"
	 xml:space="preserve">
<style type="text/css">
	.st0{fill-rule:evenodd;clip-rule:evenodd;fill:#3C4797;}
	.st1{fill-rule:evenodd;clip-rule:evenodd;fill:#21A55E;}
	.st2{fill-rule:evenodd;clip-rule:evenodd;fill:#3C4797;stroke:#394697;stroke-width:4.252;stroke-miterlimit:22.9256;}
	.st3{fill-rule:evenodd;clip-rule:evenodd;fill:#92C5C6;}
	.st4{fill-rule:evenodd;clip-rule:evenodd;fill:#FFFFFF;}
	.st5{fill-rule:evenodd;clip-rule:evenodd;fill:#333332;}
	.st6{fill-rule:evenodd;clip-rule:evenodd;fill:#387B7C;}
	.st7{fill-rule:evenodd;clip-rule:evenodd;fill:#020107;}
	.st8{fill-rule:evenodd;clip-rule:evenodd;fill:#639696;}
	.st9{fill-rule:evenodd;clip-rule:evenodd;fill:#D49967;}
	.st10{fill-rule:evenodd;clip-rule:evenodd;fill:#FBCFA8;}
	.st11{fill-rule:evenodd;clip-rule:evenodd;fill:#00973F;}
	.st12{fill-rule:evenodd;clip-rule:evenodd;fill:#FBC78E;}
	.st13{fill-rule:evenodd;clip-rule:evenodd;fill:#0F6262;}
	.st14{fill-rule:evenodd;clip-rule:evenodd;fill:#A9302F;}
	.st15{fill-rule:evenodd;clip-rule:evenodd;fill:#BDD1BD;}
	.st16{fill-rule:evenodd;clip-rule:evenodd;fill:#FBCC9B;}
	.st17{fill-rule:evenodd;clip-rule:evenodd;fill:#9EA694;}
	.st18{fill-rule:evenodd;clip-rule:evenodd;fill:#FEE7D0;}
	.st19{fill-rule:evenodd;clip-rule:evenodd;fill:#A86A2F;}
	.st20{fill-rule:evenodd;clip-rule:evenodd;fill:#B08E73;}
	.st21{fill-rule:evenodd;clip-rule:evenodd;fill:#357272;}
	.st22{fill-rule:evenodd;clip-rule:evenodd;fill:#30302E;}
	.st23{fill-rule:evenodd;clip-rule:evenodd;fill:#0D5B5A;}
	.st24{fill-rule:evenodd;clip-rule:evenodd;fill:#306768;}
	.st25{fill-rule:evenodd;clip-rule:evenodd;fill:#2A2C2A;}
	.st26{fill-rule:evenodd;clip-rule:evenodd;fill:#831205;}
	.st27{fill-rule:evenodd;clip-rule:evenodd;fill:#C6C5C7;}
	.st28{fill-rule:evenodd;clip-rule:evenodd;fill:#009640;}
	.st29{fill-rule:evenodd;clip-rule:evenodd;fill:#312783;}
</style>
<g>
	<path class="st0" d="M184.01,165.37c0,1.08-0.92,1.96-2.06,1.96h-28.8c-1.14,0-2.06-0.88-2.06-1.96v-27.46
		c0-1.08,0.92-1.97,2.06-1.97h28.8c1.14,0,2.06,0.89,2.06,1.97V165.37z"/>
	<path class="st0" d="M225.38,165.37c0,1.08-0.93,1.96-2.06,1.96h-28.8c-1.13,0-2.06-0.88-2.06-1.96v-27.46
		c0-1.08,0.92-1.97,2.06-1.97h28.8c1.13,0,2.06,0.89,2.06,1.97V165.37z"/>
	<path class="st0" d="M596.89,139.53l-36-34.33c0-0.01,0-0.01,0-0.01V80.9c0-1.36-1.17-2.46-2.59-2.46h-11.34
		c-1.42,0-2.59,1.1-2.59,2.46v8.57L496.7,44.01c-1.36-1.29-3.59-1.29-4.95,0l-4.95,4.72c-1.36,1.3-3.59,3.42-4.95,4.72l-43.13,41.11
		L353.6,13.41c-1.36-1.3-3.58-3.42-4.95-4.72l-4.95-4.71c-1.36-1.3-3.58-1.3-4.95,0l-47.67,45.44v-8.56c0-1.35-1.16-2.46-2.59-2.46
		h-11.34c-1.42,0-2.59,1.12-2.59,2.46v24.29c0,0.01,0.01,0.01,0.01,0.02l-30.85,29.4l-43.12-41.11c-1.36-1.29-3.59-3.42-4.95-4.72
		l-4.95-4.72c-1.36-1.29-3.58-1.29-4.94,0l-47.67,45.45V80.9c0-1.36-1.17-2.46-2.59-2.46h-11.33c-1.43,0-2.59,1.1-2.59,2.46v24.3
		c0,0,0,0,0,0.01l-36.01,34.33c-1.36,1.29-1.36,3.41,0,4.71l4.95,4.72c1.36,1.29,3.59,1.29,4.95,0l90.28-86.08
		c1.36-1.3,3.58-1.3,4.94,0L281,148.96c1.36,1.29,3.59,1.29,4.95,0l4.95-4.72c1.37-1.29,1.37-3.41,0-4.71l-37.27-35.54l85.13-81.15
		c1.36-1.3,3.59-1.3,4.95,0l85.13,81.15l-37.27,35.54c-1.36,1.29-1.36,3.41,0,4.71l4.95,4.72c1.37,1.29,3.59,1.29,4.95,0
		l90.29-86.08c1.36-1.3,3.59-1.3,4.95,0l90.29,86.08c1.36,1.29,3.59,1.29,4.95,0l4.94-4.72
		C598.25,142.95,598.25,140.83,596.89,139.53z"/>
	<path class="st0" d="M192.69,71.78c-0.53-0.5-1.38-1.31-1.9-1.8l-1.9-1.81c-0.52-0.49-1.37-0.49-1.9,0l-38.37,36.59
		c-0.53,0.49-0.53,1.31,0,1.81l1.89,1.81c0.52,0.5,1.37,0.5,1.9,0L187,75.39c0.52-0.49,1.37-0.49,1.9,0l34.59,32.98
		c0.52,0.5,1.37,0.5,1.9,0l1.89-1.81c0.52-0.5,0.52-1.31,0-1.81L192.69,71.78z"/>
	<path class="st0" d="M345.97,31.39c-0.52-0.5-1.37-1.31-1.9-1.81l-1.89-1.8c-0.52-0.5-1.38-0.5-1.9,0L301.9,64.37
		c-0.53,0.5-0.52,1.31,0,1.8l1.89,1.81c0.52,0.49,1.37,0.49,1.9,0l34.59-32.98c0.52-0.49,1.38-0.49,1.9,0l34.59,32.98
		c0.52,0.5,1.37,0.5,1.89,0l1.9-1.81c0.52-0.5,0.52-1.3,0-1.8L345.97,31.39z"/>
	<path class="st0" d="M498.97,71.78c-0.53-0.5-1.38-1.31-1.9-1.8l-1.9-1.81c-0.52-0.49-1.37-0.49-1.9,0l-38.38,36.59
		c-0.52,0.49-0.52,1.31,0,1.81l1.9,1.81c0.52,0.5,1.37,0.5,1.89,0l34.59-32.98c0.52-0.49,1.37-0.49,1.9,0l34.59,32.98
		c0.53,0.5,1.38,0.5,1.9,0l1.89-1.81c0.52-0.5,0.52-1.31,0-1.81L498.97,71.78z"/>
	<path class="st1" d="M347.7,406.69c122.11,0,227.78,24.59,278.8,60.36c-15.27-45.73-134.26-81.35-278.8-81.35
		c-144.55,0-263.54,35.62-278.81,81.35C119.91,431.28,225.59,406.69,347.7,406.69z"/>
	<path class="st0" d="M184.01,190.05v-14.81c0-1.08-0.92-1.96-2.06-1.96h-28.8c-1.14,0-2.06,0.88-2.06,1.96v23.32
		C161.38,195.47,172.37,192.61,184.01,190.05z"/>
	<path class="st0" d="M225.38,182.49v-7.25c0-1.08-0.93-1.96-2.06-1.96h-28.8c-1.13,0-2.06,0.88-2.06,1.96v13
		C202.99,186.1,213.98,184.18,225.38,182.49z"/>
	<path class="st0" d="M337,129.92c0,1.08-0.92,1.96-2.05,1.96h-28.81c-1.13,0-2.06-0.88-2.06-1.96v-27.47
		c0-1.07,0.92-1.96,2.06-1.96h28.81c1.13,0,2.05,0.88,2.05,1.96V129.92z"/>
	<path class="st0" d="M378.37,129.92c0,1.08-0.92,1.96-2.06,1.96h-28.8c-1.13,0-2.06-0.88-2.06-1.96v-27.47
		c0-1.07,0.92-1.96,2.06-1.96h28.8c1.13,0,2.06,0.88,2.06,1.96V129.92z"/>
	<path class="st0" d="M337,167.25c0,1.09-0.92,1.97-2.05,1.97h-28.81c-1.13,0-2.06-0.88-2.06-1.97v-27.46
		c0-1.07,0.92-1.96,2.06-1.96h28.81c1.13,0,2.05,0.88,2.05,1.96V167.25z"/>
	<path class="st0" d="M378.37,167.25c0,1.09-0.92,1.97-2.06,1.97h-28.8c-1.13,0-2.06-0.88-2.06-1.97v-27.46
		c0-1.07,0.92-1.96,2.06-1.96h28.8c1.13,0,2.06,0.88,2.06,1.96V167.25z"/>
	<path class="st2" d="M111.64,120.44l-1.03,191.19l8.75,0.7l0.7-186.5C120.07,123.34,111.65,117.95,111.64,120.44z"/>
	<path class="st2" d="M574.05,123.68l1.03,157.56l-8.75,0.58l-0.7-153.69C565.63,126.07,574.04,121.63,574.05,123.68z"/>
	<g>
		<path class="st3" d="M413.26,406.56h15.33c0-1.74,0.46-3.67,2.21-4.68c5.38-3.12,12.7-1.31,18.08-5.75
			c0.76-0.63,1.54-1.15,2.33-1.56l0-0.03h-25C419.17,394.54,413.44,399.89,413.26,406.56L413.26,406.56z M471.79,406.56h14.2
			c0.14-1.57,0.66-3.3,2.06-4.49c3.37-2.8,6.49-0.72,10.58-2.66c1.66-0.8,3.22-1.84,4.54-3.35c0.48-0.56,0.98-1.07,1.5-1.52h-35.72
			l0.01,0.11l0,0C469.78,394.9,471.78,397.51,471.79,406.56L471.79,406.56z M525.43,406.56h0.04v-0.01L525.43,406.56z"/>
		<path class="st4" d="M401.75,161.41c0,1.91,1.63,3.47,3.64,3.47c2.01,0,3.64-1.55,3.64-3.47v-15.13c0-1.91-1.63-3.47-3.64-3.47
			c-2.01,0-3.64,1.55-3.64,3.47V161.41z"/>
		<path class="st5" d="M508.12,284.03c-0.77,0-1.54-0.02-2.31-0.06c-17.61-0.89-35.18-11.07-47.01-27.22
			c-9.72-13.29-14.06-28.17-12.21-41.9l3.28,0.4c-1.74,12.96,2.39,27.06,11.64,39.7c11.25,15.37,27.87,25.04,44.47,25.88
			c18.69,0.98,36.55-10.55,40.66-26.17c4.49-17.06-6.92-33.76-14.12-42.2c-2.13-2.49-5.38-5.75-8.96-5.4l-0.35-3.13
			c5.21-0.53,9.26,3.48,11.87,6.54c7.59,8.89,19.6,26.56,14.76,44.95C545.54,271.8,527.47,284.03,508.12,284.03z"/>
		<path class="st6" d="M458.23,212.13c-5.47,0.16-9.33,1.54-11.47,4.11c-2.29,2.74-1.68,5.78-1.66,5.91l1.84-0.34
			c-0.02-0.1-0.45-2.4,1.31-4.48c1.79-2.12,5.16-3.27,10.03-3.41L458.23,212.13z"/>
		<path class="st7" d="M432.41,219.07l-1.67-2.93l-60.26,31.26c-1.02,0.53-1.87,1.3-2.47,2.25l-8.76,13.72l2.99,1.73l8.76-13.72
			c0.28-0.44,0.68-0.8,1.16-1.05L432.41,219.07z"/>
		<path class="st8" d="M443.2,224.28l1.11-3l4.75,0.54c0.71,0.08,1.42-0.05,2.04-0.38l5.74-2.98c1.57-0.82,2.15-2.69,1.3-4.19
			l-3.48-6.1l1.28-0.66l3.72,6.51c1.21,2.13,0.39,4.79-1.84,5.94l-6.39,3.32c-0.77,0.4-1.62,0.63-2.49,0.68L443.2,224.28z"/>
		<polygon class="st9" points="453.27,202.84 456.24,208.04 446.28,213.21 443.31,208.01 		"/>
		<path class="st9" d="M434.13,221.22c-0.58,0.3-1.3,0.1-1.62-0.46l-3-5.25c-0.32-0.55-0.1-1.24,0.48-1.54l1.25-0.65l4.14,7.25
			L434.13,221.22z"/>
		<path class="st10" d="M438.29,226.22l-2.74-4.8l-4.14-7.25l-0.17-0.3c-0.56-0.98-0.18-2.19,0.84-2.73l8.54-4.43
			c1.02-0.53,2.3-0.17,2.86,0.81l0.17,0.3l2.97,5.2l0.09,0.16c0.18,0.32,0.27,0.68,0.25,1.04l-0.38,8.86
			c-0.03,0.71-0.45,1.35-1.1,1.68l-4.34,2.25C440.13,227.56,438.85,227.2,438.29,226.22z"/>
		<path class="st11" d="M508.9,323.47c-0.33,1.21-0.68,2.19-1.03,2.96c-0.14,1.7-1.4,2.97-3.31,3.82
			c-3.08,1.39-7.84,1.66-12.24,0.86c-5.01-0.92-9.53-3.25-10.51-7.03v-0.02l-0.23-5.54l-0.51-11.96l-0.45-10.61l-1.66-38.96
			c-0.29-2.51,27.14-12.95,27.47-12.56c2.36,7.48,3.56,11.37,1.85,18.43C511.66,280.65,511.04,315.26,508.9,323.47z"/>
		<path class="st5" d="M528.28,406.08l-11.03,1.84l-7.25,1.21l-8.75,1.47l-14.99-0.23c0,0-1.44-5.58,1.79-8.3
			c3.37-2.8,6.49-0.72,10.58-2.66c1.66-0.8,3.22-1.84,4.54-3.35c0.64-0.74,1.32-1.41,2.01-1.94c1.25-1,2.63-1.74,4.03-2.23
			c1.95-0.74,3.98-1.04,5.96-1.13c2.79-0.12,5.42,0.21,7.52,0.49c0.86,0.14,3.43,2.49,5.09,11.98L528.28,406.08z"/>
		<path class="st11" d="M524.07,379.42c-0.06,1.19-1.56,2.58-3.84,3.84c-1.6,0.92-3.55,1.74-5.69,2.45c-2.2,0.72-4.56,1.27-6.8,1.53
			c-1.56,0.18-3.06,0.23-4.39,0.1c-2.96-0.27-5.24-1.43-5.83-3.84l-15.71-59.42v-0.02l-0.12-0.43c-0.23-1.53-0.27-3.27-0.1-5.11
			c0.53-7.62,4.21-16.87,10.21-18.72c0.41-0.14,0.82-0.22,1.23-0.27l0.31-0.06c3.24-0.41,6.12,1.82,8.44,5.21
			c3.59,5.23,5.97,13.12,6.73,18.13c0.14,0.22,0.25,0.43,0.39,0.67C515.28,335.17,521.24,356.26,524.07,379.42z"/>
		<path class="st12" d="M454.66,165.05c8.19,4.35,11.87-8.97,15.18-14.44l-4.81-14.76l-20.25,8.42L454.66,165.05z"/>
		<path class="st12" d="M440.26,153.14c1.12,1.17,2.63,1.9,4.45,1.6l3.98-0.72c1.27-0.33,2.67-1.04,4.01-2.04l0.01-0.01
			c3.63-2.77,13.92-12.05,13.76-14.83c-0.18-3.07,2.58-8.02,2.29-12.06c-3.4-17.65-14.76-14.98-21.67-13.98
			c-5.53,1.04-10.46,4.36-12.52,10.21c-0.62,1.73-0.98,3.69-1.03,5.89c-0.02,1.14,0.04,2.31,0.18,3.57
			c0.61,1.09,1.25,1.98,1.25,1.98l-0.28,0.99l-1.26,4.42c-0.27,1.14,0.6,2.24,1.84,2.32l1.85,0.21c0.22,1.18,0.81,7.89,0.81,7.89
			C438.25,150.14,439.03,151.9,440.26,153.14z"/>
		<path class="st5" d="M466.72,141.31c-12.15,4.42-7.26-10.3-7.26-10.3s-2.14,4.72-2.97,6.07c-2.05,0.27-2.05,0.27-3.92,0.4
			c-3.13-14.97-1.13-22.18-18.01-16.15c-13.57-3.21,6.1-11.53,14.04-12.6c9.33-1.26,18.23,2.5,20.44,11.23
			C470.33,125.03,471.33,127.83,466.72,141.31z"/>
		<polygon class="st5" points="397.03,242.3 415.27,237.86 414.25,234.03 396,238.47 		"/>
		<path class="st6" d="M496.99,188.82l-13.44,49.67l10.62,5.56l21.9-45.59c2.12-3.73,2.53-8.28,0.5-12.06
			c-1.45-2.7-3.77-4.86-6.67-5.44l-0.21-0.04C503.9,179.75,498.21,183.29,496.99,188.82z"/>
		<path class="st6" d="M482.36,154.9l32.03,28.52l-11.98,18.78l-35.06-30.13c-4.67-3.63-10.46-12.66-5.3-18.27
			C462.05,153.8,470.6,144.68,482.36,154.9z"/>
		<path class="st6" d="M504.7,235.84c-2.18,1.18-4.38,2.27-6.56,3.23c-3.83,1.73-7.71,3.13-11.66,4.09
			c-0.31,0.1-0.61,0.16-0.92,0.24c-3.78,0.85-7.61,1.29-11.53,1.21c-3.37-0.02-6.79-0.46-10.27-1.32c-0.13-0.24-0.26-0.49-0.4-0.76
			c-1.8-3.53-4.15-9.92-6.44-16.69c-0.56-1.59-1.09-3.21-1.62-4.82c-0.5-1.51-0.99-3.02-1.45-4.49c-1.04-3.21-1.98-6.23-2.78-8.82
			c-0.1-0.35-0.21-0.68-0.31-0.99c-0.49-1.57-0.91-2.95-1.2-4.03v-0.03c-0.51-1.72-0.79-2.74-0.79-2.77
			c-0.08-0.33-0.15-0.64-0.22-0.98c-4.42-20.42,3.22-39.35,3.22-39.35l1.54-0.85l-0.02-1.48l0.03-0.46
			c0.08-2.31,1.37-4.41,3.33-5.76l11.05-6.83l2.41,4.53c0.66,0.11,1.32,0.25,1.97,0.39c1.72,0.42,3.33,1.02,4.87,1.79
			c2.96,1.45,5.57,3.49,7.91,6c4.08,4.36,7.23,10.11,9.73,16.56c5.48,14.2,7.65,31.77,8.8,45.37c0.25,2.82,0.43,5.43,0.61,7.84
			C504.27,230.36,504.49,233.47,504.7,235.84z"/>
		<path class="st11" d="M505.25,268.02c-2.71,3.64-7.15,6.49-14.1,7.73l-6.18-2.88h-0.02l-18.41-8.58l-5.7-2.66l2.92-18.36
			l8.79-1.59l18.88-3.43l13.28-2.42c0,0,0.36,0.79,0.89,2.14c1.14,2.99,3.06,8.79,3.4,14.99
			C509.31,258.17,508.52,263.66,505.25,268.02z"/>
		<polygon class="st6" points="499.82,248.32 497.96,248.58 496.36,238.27 498.22,238 		"/>
		<path class="st11" d="M497.24,252.39l-0.07,0.38c-0.2,1.16-0.56,2.75-1.02,4.71c-0.94,3.89-2.36,9.15-4.06,15.07
			c-0.3,1.06-0.61,2.13-0.94,3.21c-0.2,0.63-0.38,1.29-0.58,1.94c-0.06,0.21-0.13,0.39-0.18,0.6c-2.81,9.35-6.11,19.63-9.32,28.26
			c-3.33,9.13-6.57,16.45-8.9,18.97c-0.76,1.84-2.94,2.87-5.71,3.15c-1.12,0.11-2.34,0.13-3.62,0.02c-0.51-0.05-1.04-0.11-1.59-0.19
			c-7.2-1.05-15.19-5.21-14.88-10.72l0.03-0.3c0.83-10.42,3.81-22.53,7.73-35.39l0.02-0.02c2.03-6.66,4.31-13.51,6.69-20.44
			c0.31-0.93,0.64-1.86,0.96-2.79l1.68-5.86c0.25-1.28,4.39,0.33,8.31-2.2C481.79,244.28,497.27,252.04,497.24,252.39z"/>
		<path class="st5" d="M471.79,407.28v2.88h-42.64c0,0-2.03-6.16,1.65-8.28c5.38-3.12,12.7-1.31,18.08-5.75
			c0.76-0.63,1.54-1.15,2.33-1.56c2.41-1.32,4.94-1.81,7.4-1.84c1.45-0.02,2.87,0.14,4.23,0.36c0.23,0.03,0.48,0.08,0.71,0.13
			c2.02,0.38,3.86,0.95,5.42,1.43C469.8,394.9,471.88,397.64,471.79,407.28z"/>
		<polygon class="st5" points="469.46,399.06 462.93,398.86 462.67,398.84 460.31,398.76 451.54,398.51 451.21,394.57 
			450.85,389.95 450.18,381.7 466.65,379.49 467.13,379.44 467.23,379.41 467.23,379.44 467.24,379.57 467.24,379.63 468.4,389.82 
			468.96,394.65 		"/>
		<path class="st11" d="M473.17,386.88c-0.36,1.18-2.18,2.19-4.77,2.94c-1.35,0.38-2.91,0.69-4.57,0.91
			c-1.24,0.17-2.51,0.27-3.78,0.32c-3.32,0.11-6.66-0.2-9.2-1.1c-2.69-0.93-4.49-2.52-4.49-4.93l-0.48-64.58
			c0.1-0.94,0.26-1.92,0.53-2.96c2-8.19,9-18.69,16.33-18.03l0.31,0.03c4.24,0.38,6.74,5.04,8.06,10.61
			c0.05,0.22,0.1,0.46,0.15,0.69v0.02c0.08,0.39,0.16,0.8,0.25,1.2c0.87,4.8,0.99,9.96,0.66,13.52c1.49,5.24,2.41,12.61,2.77,21.11
			C475.47,358.69,474.87,373.02,473.17,386.88z"/>
		<path class="st5" d="M486.91,243c-13.38,0-27.26-2.59-32.74-18.45c-7.92-23.68-12-42.77-6.21-59.07
			c3.39-9.28,8.53-12.23,12.25-13.08c3.54-0.81,9.21-0.45,16.08,5.84l-4.57,4.54c-2.61-2.39-6.45-5.05-9.97-4.26
			c-2.99,0.68-5.66,3.88-7.54,9.01c-5.2,14.64-1.27,32.61,6.25,55.08c3.65,10.57,11.37,14.42,28.44,14.08l0.13,6.3
			C488.32,243,487.62,243,486.91,243z"/>
		<path class="st13" d="M396.25,235.63c-0.61,2.4-0.93,2.74-2.94,3.78c-3.42,1.79-4.55,2.28-8.26,4.01c2.05,1.2,3.02,2.97,5.41,3.3
			c2.46,0.35,4.93-0.29,7.32-0.92c2.69-0.71,5.42-1.43,7.79-2.83c2.73-1.61,4.82-4.01,6.87-6.37c0.37-0.42,0.75-0.88,0.81-1.42
			c0.06-0.6-0.28-1.16-0.65-1.65c-2.05-2.65-5.38-4.13-8.7-5.07c-1.9-0.54-3.91-0.93-5.84-0.53c-4.44,0.92-7.94,5.17-12.25,6.57
			c-0.78,0.25-1.69,0.46-2.06,1.15c-0.34,0.63-0.05,1.45,0.53,1.9c0.58,0.45,1.37,0.57,2.11,0.53c1.58-0.1,3-0.88,4.43-1.5
			C392.26,235.93,394.76,235.14,396.25,235.63z"/>
		<path class="st6" d="M469.59,214.15l-0.08,0.66c-0.02,0.2-0.07,0.41-0.1,0.6c-0.15,0.68-0.35,1.35-0.61,2.02
			c-1.57,3.97-5.37,6.75-9.69,7.76l-2.18,0.66l-28.72,8.75L409,240.44l-2.84-11.22l18.78-9.46l22.51-11.35l3.32-1.67l2.97-1.5
			c2.71-1.51,5.85-1.76,8.64-0.93c2.44,0.73,4.64,2.28,6.05,4.58l0.1,0.17C469.46,210.57,469.77,212.35,469.59,214.15z"/>
		<path class="st6" d="M475.05,173.98l-5.62,41.44l-22.99,1.68l5.23-44.72c0.37-5.74,4.69-15.49,12.48-14.76
			C464.14,157.6,476.9,158.91,475.05,173.98z"/>
		<path class="st13" d="M428.53,236.13L409,240.44c-2.2-3.76-3.45-7.49-2.84-11.22l18.71-9.76l0.06,0.3l2.83,12.83l0.45,2.01
			L428.53,236.13z"/>
		<path class="st6" d="M433.6,137.61l19.9,4.53c1.54,8.37-1.76,12.22-15.79,16.45l-7.44-9.73L433.6,137.61z"/>
		<polygon class="st14" points="437.18,157.89 434.88,158.59 429.91,152.33 430.98,149.79 		"/>
		<polygon class="st5" points="467.22,115.71 452.88,143.28 448.56,142.14 464.81,112.88 		"/>
		<path class="st5" d="M445.4,127.14v4.76l24.99-3.43c0.15-1.8,0.03-2.91-0.26-4.66L445.4,127.14z"/>
		<path class="st15" d="M433.76,137.05l0.93-3.29l0.28-0.99c0,0-0.64-0.89-1.25-1.98c-0.14-1.26-0.21-2.43-0.18-3.57
			c0.01-0.23,0.01-0.46,0.03-0.68c-1.2,0.41-2.2,0.81-3,1.17l0.78,5.81c0.19,1.37,0.97,2.6,2.16,3.37L433.76,137.05z"/>
		<path class="st16" d="M438.2,138.61c0.69,0,1.38-0.11,2.05-0.32l0.45-0.15l0.57-0.18l1.65-0.54l0.11-0.05
			c1.16-0.41,1.91-1.47,1.91-2.64c0-0.06,0-0.13-0.01-0.19l-0.37-5.54c-0.13-2.02-1.65-3.58-3.54-4.03
			c-0.35-0.08-0.7-0.12-1.06-0.12c-0.28,0-0.55,0.02-0.83,0.08l-0.41,0.08l-0.16,0.04c-1.52,0.39-2.84,0.77-4,1.15
			c-0.35,0.11-0.69,0.22-1.01,0.33c-0.01,0.23-0.02,0.45-0.03,0.68c-0.02,1.14,0.04,2.31,0.18,3.57c0.61,1.09,1.25,1.98,1.25,1.98
			l-0.28,0.99l-0.93,3.29l0.8,0.51c0.28,0.18,0.56,0.34,0.86,0.47l2.56,0.58C438.05,138.61,438.13,138.61,438.2,138.61L438.2,138.61
			z M438.57,125.71l2.13,11.78l-0.45,0.13c-0.67,0.2-1.36,0.29-2.05,0.29c-0.38,0-0.75-0.03-1.12-0.08l-2.5-11.08
			C435.73,126.41,437.05,126.07,438.57,125.71L438.57,125.71z M439.97,125.53c0.36,0,0.71,0.04,1.06,0.11l2,11.16l-0.11,0.05
			l-1.65,0.49l-2.13-11.73C439.42,125.55,439.7,125.53,439.97,125.53z"/>
		<path class="st17" d="M437.98,138.6l-2.56-0.58c0.53,0.24,1.09,0.41,1.66,0.49C437.38,138.56,437.68,138.59,437.98,138.6z"/>
		<path class="st5" d="M446.85,128.85c-0.23-3.47-3.26-6.18-6.89-6.18l-0.44,0.01c-0.47,0.03-0.94,0.11-1.39,0.22
			c-2.25,0.58-4.58,1.22-6.48,1.86l-0.21,0.09c0,0.25,0.01,0.52,0.02,0.78l0.43-0.23c1.82-0.62,4.11-1.24,6.43-1.84
			c0.41-0.11,0.83-0.17,1.24-0.2c3.41-0.21,6.37,2.27,6.59,5.53l0.37,5.54c0.13,1.96-1.13,3.76-3.08,4.4l-2.68,0.87
			c-0.67,0.22-1.37,0.35-2.08,0.4c-1.76,0.11-3.53-0.35-4.99-1.3h0c-0.2-0.13-0.36-0.3-0.54-0.46l-0.01,0.89l0.14,0.12
			c1.44,0.92,3.17,1.44,4.9,1.44c0.19,0,0.35-0.01,0.54-0.01c0.77-0.05,1.54-0.2,2.26-0.43l2.69-0.88c1.34-0.43,2.39-1.35,3-2.49
			c0.41-0.77,0.61-1.67,0.55-2.58L446.85,128.85z"/>
		<path class="st6" d="M433.51,136.89l1.05,0.66c0.77,0.5,1.62,0.83,2.52,0.96c1.04,0.18,2.13,0.11,3.17-0.23l0.45-0.15l0.57-0.18
			l1.65-0.54l0.11-0.05c1.22-0.43,1.99-1.59,1.9-2.83l-0.37-5.54c-0.13-2.02-1.65-3.58-3.54-4.03c-0.61-0.14-1.25-0.16-1.89-0.04
			l-0.41,0.08l-0.16,0.04c-1.52,0.39-2.84,0.77-4,1.15c-1.66,0.53-2.99,1.04-4.01,1.5l0.78,5.81
			C431.53,134.88,432.32,136.11,433.51,136.89L433.51,136.89z M433.67,138.8c-0.2-0.13-0.36-0.3-0.54-0.46
			c-1.03-0.91-1.71-2.13-1.86-3.47l-0.8-7.33c-0.08-0.77,0.3-1.5,0.96-1.91l0.43-0.23c1.82-0.62,4.11-1.24,6.43-1.84
			c0.41-0.11,0.83-0.17,1.24-0.2c3.41-0.21,6.37,2.27,6.59,5.53l0.37,5.54c0.13,1.96-1.13,3.76-3.08,4.4l-2.68,0.87
			c-0.67,0.22-1.37,0.35-2.08,0.4C436.91,140.2,435.14,139.74,433.67,138.8L433.67,138.8z"/>
		<path class="st18" d="M441.27,137.33l1.65-0.49l0.11-0.05l-2-11.16c-0.35-0.07-0.7-0.11-1.06-0.11c-0.28,0-0.55,0.02-0.83,0.07
			L441.27,137.33z"/>
		<path class="st18" d="M438.2,137.92c0.69,0,1.38-0.09,2.05-0.29l0.45-0.13l-2.13-11.78c-1.52,0.35-2.84,0.7-4,1.04l2.5,11.08
			C437.45,137.89,437.82,137.92,438.2,137.92z"/>
		<path class="st12" d="M461.77,131.87c0.43,2.78-1.53,6.34-3.44,6.61c-1.91,0.27-2.05-2.02-2.51-4.79c-0.31-1.84-1.2-4.38,0.8-5.26
			C458.38,127.66,461.14,127.79,461.77,131.87z"/>
		<path class="st19" d="M445.78,147.79c3.97,1.91,5.96,5.8,4.44,8.67c-1.52,2.87-5.99,3.64-9.96,1.73c-3.97-1.91-5.96-5.8-4.44-8.67
			C437.35,146.65,441.81,145.88,445.78,147.79L445.78,147.79z M446.2,147.01c-4.42-2.13-9.44-1.18-11.19,2.12
			c-1.75,3.3,0.42,7.72,4.84,9.85c4.42,2.13,9.44,1.18,11.19-2.12C452.79,153.56,450.62,149.14,446.2,147.01z"/>
		<polygon class="st9" points="450.63,156.66 448.7,160.29 433.49,152.95 435.42,149.33 		"/>
		<path class="st9" d="M445.99,147.4c4.2,2.03,6.28,6.17,4.64,9.26c-1.64,3.09-6.37,3.95-10.57,1.92c-4.2-2.03-6.28-6.17-4.64-9.26
			C437.06,146.24,441.79,145.38,445.99,147.4z"/>
		<path class="st10" d="M444.06,151.03c4.2,2.03,6.28,6.17,4.64,9.26c-1.64,3.09-6.37,3.95-10.57,1.92
			c-4.2-2.03-6.28-6.17-4.64-9.26C435.13,149.87,439.86,149,444.06,151.03z"/>
		<path class="st19" d="M443.86,151.42c3.97,1.91,5.96,5.8,4.44,8.67c-1.52,2.87-5.99,3.64-9.96,1.73
			c-3.97-1.91-5.96-5.81-4.44-8.67C435.42,150.28,439.89,149.51,443.86,151.42L443.86,151.42z M444.27,150.64
			c-4.42-2.13-9.44-1.18-11.19,2.12c-1.75,3.3,0.42,7.72,4.84,9.85c4.42,2.13,9.44,1.18,11.19-2.12
			C450.86,157.19,448.69,152.77,444.27,150.64z"/>
		<path class="st20" d="M442.29,161.73c1.23,0,2.38-0.32,3.28-0.95c0.54-0.38,0.96-0.85,1.25-1.4c1.25-2.36-0.29-5.52-3.45-7.04
			c-1.13-0.55-2.33-0.82-3.47-0.82c-1.23,0-2.37,0.32-3.28,0.95c-0.54,0.38-0.96,0.84-1.24,1.39c-1.26,2.36,0.29,5.52,3.45,7.04
			C439.96,161.45,441.16,161.73,442.29,161.73L442.29,161.73z M439.9,152.32c1.01,0,2.09,0.24,3.09,0.72
			c2.75,1.32,4.13,4.01,3.08,5.99c-0.23,0.44-0.57,0.81-1,1.11c-0.75,0.52-1.74,0.79-2.79,0.79c-1.01,0-2.09-0.24-3.09-0.73
			c-2.75-1.33-4.13-4.01-3.08-5.99c0.23-0.44,0.57-0.81,1-1.11C437.86,152.58,438.85,152.32,439.9,152.32z"/>
		<path class="st20" d="M441.66,159.23c0.62,0,1.21-0.16,1.67-0.49c0.28-0.2,0.5-0.44,0.65-0.73c0.64-1.21-0.13-2.83-1.72-3.59
			c-0.55-0.26-1.13-0.39-1.69-0.39c-1.02,0-1.95,0.43-2.36,1.2c-0.64,1.22,0.13,2.83,1.72,3.59
			C440.49,159.09,441.09,159.23,441.66,159.23L441.66,159.23z M440.53,154.8c0.44,0,0.91,0.1,1.36,0.32
			c1.18,0.57,1.79,1.71,1.35,2.54c-0.26,0.5-0.9,0.77-1.61,0.77c-0.43,0-0.9-0.1-1.33-0.31c-1.18-0.57-1.79-1.71-1.35-2.54
			c0.09-0.18,0.23-0.33,0.4-0.45C439.67,154.92,440.09,154.8,440.53,154.8z"/>
		<path class="st21" d="M467.05,242.68l5.49-0.99l0.5-0.09c-4.95-1.22-9.5-3.42-13.11-7.23c1.24,3.33,2.42,6.2,3.43,8.17l0,0
			L467.05,242.68L467.05,242.68z M484.95,236.69c-13.36-0.3-20.17-3.82-23.76-12.15c3.43-1.32,6.29-3.81,7.6-7.12
			c0.26-0.66,0.46-1.33,0.61-2.01h0.02l0.04-0.31c0.02-0.1,0.03-0.2,0.04-0.3l0.02-0.14l3.73-27.48l0,0.01L484.95,236.69z"/>
		<path class="st22" d="M473.05,241.59l12.53-2.28l-0.62-2.63c-13.36-0.3-20.17-3.82-23.76-12.15c-0.68,0.26-1.38,0.48-2.1,0.65
			l-2.18,0.66l-2.02,0.62l0,0l2.02-0.62c1.01,2.98,2.03,5.89,3.01,8.52l0,0C463.55,238.17,468.1,240.37,473.05,241.59L473.05,241.59
			z"/>
		<path class="st21" d="M428.2,234.6L428.2,234.6l18.59-5.67l3.19-0.97l4.91-1.5l2.02-0.62l2.18-0.66c0.72-0.17,1.42-0.38,2.1-0.65
			c3.43-1.32,6.29-3.81,7.6-7.12c0.26-0.66,0.46-1.33,0.61-2.01l-10.36,0.76c-0.4,1.27-0.81,2.53-1.24,3.8l-2.51,1.05l-27.55,11.56
			L428.2,234.6L428.2,234.6z M469.46,215.1c0.02-0.1,0.03-0.2,0.04-0.3l0.02-0.14L469.46,215.1z"/>
		<path class="st21" d="M459.05,216.17l10.36-0.76h0.02l0.04-0.31l0.06-0.43l3.73-27.48l-6.03-25.48c0.2,14.25-1.4,28.43-4.86,42.59
			C461.41,208.26,460.31,212.21,459.05,216.17C459.05,216.16,459.05,216.17,459.05,216.17z"/>
		<polygon class="st23" points="409,240.44 428.53,236.13 428.2,234.6 427.76,232.58 		"/>
		<path class="st11" d="M460.84,261.63c0.31-0.93,0.64-1.86,0.96-2.79l1.68-5.86c0.25-1.28,4.39,0.33,8.31-2.2
			c2.93-1.91,6.34-2.59,9.69-2.59c8.06,0,15.78,3.95,15.76,4.19l-0.07,0.38c-0.2,1.16-0.56,2.75-1.02,4.71l0,0
			c5.04-1.01,9.08-2.77,12.85-4.52c-0.35-6.2-2.26-12-3.4-14.99l-7.35,0.15l1.58,10.2l-1.86,0.26l-1.59-10.31l0.95-0.13l-5.89,0.12
			l-2.48,0.45l0.09,4.28c-0.7,0.01-1.41,0.02-2.12,0.02c-0.16,0-0.31,0-0.46,0l0.04,0.16l0.07,0.27l-0.99-0.03l-18.51-0.72
			l-3.29,0.6L460.84,261.63z"/>
		<polygon class="st21" points="497.96,248.58 499.82,248.32 498.24,238.12 497.31,238.13 496.36,238.27 		"/>
		<path class="st11" d="M454.15,282.07c3.96-6.69,7.99-13.19,12.39-17.78c3.75-3.96,7.76-6.49,12.18-6.49c0.08,0,0.16,0,0.24,0
			c2.9,0.39,5.55,0.56,8,0.56c3.43,0,6.46-0.34,9.2-0.89l0,0c0.46-1.95,0.83-3.54,1.02-4.71l0.07-0.38
			c0.02-0.25-7.7-4.19-15.76-4.19c-3.35,0-6.75,0.68-9.69,2.59c-3.91,2.53-8.06,0.93-8.31,2.2l-1.68,5.86
			c-0.31,0.93-0.65,1.86-0.96,2.79l0,0C458.46,268.56,456.18,275.41,454.15,282.07z"/>
		<path class="st22" d="M486.91,243c0.71,0,1.41-0.01,2.12-0.02l-0.09-4.28l-3.36,0.61l0.87,3.69C486.6,243,486.76,243,486.91,243z"
			/>
		<path class="st24" d="M486.55,243.43l-0.07-0.27l-0.04-0.16c-4.53-0.02-9.12-0.35-13.4-1.41l-0.5,0.09l-5.49,0.99l18.51,0.72
			L486.55,243.43z"/>
		<path class="st25" d="M486.45,243l-0.87-3.69l-12.53,2.28C477.33,242.65,481.91,242.98,486.45,243z"/>
		<path class="st21" d="M491.14,275.75c6.95-1.24,11.4-4.09,14.1-7.73c-4.31,2.25-8.7,3.83-13.16,4.52l0,0
			C491.79,273.6,491.47,274.67,491.14,275.75z"/>
		<path class="st11" d="M472.17,325.52c2.33-2.52,5.57-9.84,8.9-18.97c0,0,0-0.01,0.01-0.01c3.2-8.63,6.5-18.9,9.31-28.25
			c0.05-0.2,0.12-0.39,0.18-0.6c0.2-0.64,0.38-1.3,0.58-1.94l0,0c0.33-1.09,0.64-2.16,0.94-3.21c-1.68,0.26-3.37,0.4-5.08,0.4
			c-0.68,0-1.36-0.02-2.04-0.07h-0.02c-0.91,14.17-5.63,26.53-13.84,37.22c0.05,0.22,0.1,0.46,0.15,0.69v0.02
			c0.08,0.39,0.16,0.8,0.25,1.2C472.38,316.8,472.5,321.96,472.17,325.52z"/>
		<path class="st22" d="M461.68,410.16h10.11v-2.88c0-0.23,0-0.45,0-0.67c0-9.1-2.01-11.71-2.83-11.96l0.5,4.41l-6.52-0.2
			L461.68,410.16z"/>
		<path class="st22" d="M469.46,399.06l-0.5-4.41l0,0l-0.56-4.83l0,0c-1.35,0.38-2.91,0.69-4.57,0.91l0,0l-0.28,2.49l-0.61,5.64
			L469.46,399.06z"/>
		<path class="st11" d="M463.83,390.73c1.67-0.22,3.22-0.54,4.57-0.91l0,0c2.59-0.76,4.41-1.76,4.77-2.94
			c1.3-10.58,1.95-21.44,1.95-31.35c0-3.07-0.06-6.04-0.19-8.89c-0.36-8.5-1.29-15.87-2.77-21.11l0,0
			c0.33-3.56,0.21-8.72-0.66-13.52c-0.08-0.39-0.17-0.8-0.25-1.2v-0.02c-0.05-0.24-0.1-0.47-0.15-0.69l0,0
			c-3.22,4.22-7,8.17-11.3,11.87c1.11,2.24,2.13,4.49,3.02,6.72c7.02,17.07,8.42,34.05,4.41,50.95
			C466.37,383.33,465.23,387.03,463.83,390.73z"/>
		<path class="st6" d="M536.22,235.31c-0.04-0.26-0.08-0.52-0.13-0.79l-17.12-83.14c-1.55-7.53-9.21-12.44-17.12-10.96
			c-7.9,1.48-13.05,8.78-11.5,16.32l17.12,83.14c0.05,0.26,0.12,0.52,0.19,0.78L536.22,235.31z"/>
		<polygon class="st26" points="495.36,181.43 492.5,167.53 521.18,162.17 524.04,176.06 		"/>
		<polygon class="st9" points="504.53,225.96 495.36,181.43 524.04,176.06 533.21,220.59 		"/>
		<polygon class="st5" points="498.77,141.64 497.53,135.61 504.07,134.39 505.31,140.42 		"/>
		<path class="st26" d="M536.02,238.32l-27.06,5.07c-1.23,0.23-2.43-0.53-2.67-1.71l-0.01-0.04c-0.24-1.17,0.56-2.31,1.79-2.54
			l27.06-5.07c1.23-0.23,2.43,0.53,2.67,1.71l0.01,0.04C538.06,236.95,537.25,238.09,536.02,238.32z"/>
		<polygon class="st5" points="489.95,139.92 492.57,139.43 491.04,131.99 488.41,132.48 		"/>
		<path class="st5" d="M487.53,121.61c2.84-0.53,5.61,1.24,6.17,3.95c0.56,2.71-1.3,5.35-4.14,5.88c-2.84,0.53-5.61-1.24-6.16-3.95
			C482.84,124.78,484.69,122.14,487.53,121.61L487.53,121.61z M489.78,132.5c3.46-0.65,5.72-3.86,5.04-7.16
			c-0.68-3.3-4.05-5.45-7.51-4.81c-3.46,0.65-5.72,3.86-5.04,7.16C482.95,130.99,486.32,133.15,489.78,132.5z"/>
		<path class="st14" d="M487.89,123.16l-0.04,0.01c-1.26,0.24-2.29,1.09-2.71,2.25c-0.1,0.27-0.16,0.54-0.18,0.82l1.37,0.11
			c0.01-0.17,0.05-0.34,0.11-0.51c0.26-0.71,0.89-1.24,1.67-1.39l0.02,0L487.89,123.16z"/>
		<path class="st9" d="M484.97,126.22c-0.09,0.92,0.22,1.84,0.87,2.56c0.84,0.92,2.14,1.34,3.4,1.11c1.26-0.24,2.29-1.09,2.7-2.25
			c0.42-1.16,0.15-2.44-0.69-3.36c-0.84-0.92-2.14-1.34-3.39-1.11l0.26,1.28c0.78-0.15,1.58,0.12,2.1,0.69
			c0.52,0.57,0.68,1.36,0.43,2.07c-0.25,0.71-0.89,1.24-1.67,1.39c-0.78,0.15-1.58-0.12-2.1-0.69c-0.4-0.44-0.59-1.01-0.54-1.58
			L484.97,126.22z"/>
		<path class="st6" d="M491.69,124.87c-0.12-0.21-0.27-0.42-0.44-0.6c-0.84-0.92-2.14-1.34-3.39-1.11l0.26,1.28
			c0.78-0.15,1.58,0.12,2.1,0.69l0.27,0.37L491.69,124.87z"/>
		<path class="st5" d="M492.77,125.37c-0.19,0.04-0.32,0.21-0.28,0.4c0.04,0.18,0.22,0.3,0.42,0.27c0.19-0.04,0.32-0.22,0.28-0.4
			C493.16,125.46,492.97,125.33,492.77,125.37z"/>
		<path class="st5" d="M484.18,126.98c-0.19,0.04-0.32,0.21-0.28,0.4c0.04,0.18,0.23,0.3,0.42,0.27c0.19-0.03,0.32-0.21,0.28-0.4
			C484.56,127.06,484.37,126.94,484.18,126.98z"/>
		<path class="st5" d="M487.35,122.48c0.04,0.19,0.23,0.3,0.42,0.27c0.19-0.04,0.32-0.21,0.28-0.4c-0.04-0.18-0.23-0.3-0.42-0.27
			C487.44,122.11,487.31,122.29,487.35,122.48z"/>
		<path class="st5" d="M489.04,130.67c0.04,0.19,0.23,0.31,0.42,0.27c0.19-0.03,0.32-0.21,0.28-0.4c-0.04-0.18-0.23-0.3-0.42-0.27
			C489.13,130.31,489,130.49,489.04,130.67z"/>
		<polygon class="st5" points="492.38,128.56 491.89,128.65 491.98,129.12 492.48,129.03 		"/>
		<polygon class="st5" points="485.11,123.9 484.61,123.99 484.71,124.46 485.21,124.37 		"/>
		<polygon class="st5" points="490.69,122.85 490.79,123.33 491.28,123.23 491.19,122.76 		"/>
		<polygon class="st5" points="485.81,129.79 485.9,130.26 486.4,130.17 486.3,129.7 		"/>
		<path class="st5" d="M487.65,127.21c0.4,0.47,1.13,0.55,1.62,0.17c0.5-0.38,0.57-1.08,0.17-1.55c-0.4-0.47-1.13-0.55-1.62-0.17
			C487.33,126.05,487.25,126.74,487.65,127.21z"/>
		<polygon class="st5" points="488.79,126.2 485.79,123.26 488.17,126.68 		"/>
		<path class="st8" d="M516.1,239.08c-0.04-0.26-0.08-0.52-0.14-0.79l-17.12-83.14c-1.55-7.53-9.21-12.44-17.12-10.96
			c-7.9,1.48-13.05,8.79-11.5,16.32l17.12,83.14c0.05,0.26,0.12,0.52,0.19,0.78L516.1,239.08z"/>
		<polygon class="st14" points="475.25,185.19 472.39,171.3 501.06,165.93 503.92,179.82 		"/>
		<polygon class="st10" points="484.42,229.72 475.25,185.19 503.92,179.82 513.09,224.36 		"/>
		<polygon class="st5" points="478.66,145.41 477.42,139.38 483.95,138.15 485.19,144.18 		"/>
		<path class="st14" d="M515.91,242.09l-27.06,5.06c-1.23,0.23-2.42-0.54-2.67-1.71l-0.01-0.04c-0.24-1.17,0.56-2.31,1.79-2.54
			l27.06-5.06c1.23-0.23,2.43,0.53,2.67,1.71l0.01,0.04C517.94,240.72,517.14,241.86,515.91,242.09z"/>
		<polygon class="st5" points="470.43,168.97 522.07,159.31 520.74,152.87 469.11,162.54 		"/>
		<polygon class="st5" points="484.83,238.88 536.46,229.22 535.14,222.78 483.5,232.44 		"/>
		<polygon class="st5" points="483.92,245.1 487.79,244.38 469.95,157.78 465.61,156.59 		"/>
		<polygon class="st5" points="474.85,141.08 505.38,135.37 504.47,130.96 473.94,136.67 		"/>
		<polygon class="st5" points="470.68,143.28 475.13,142.45 473.66,135.31 469.21,136.14 		"/>
		<polygon class="st5" points="505.39,136.57 509.84,135.73 508.37,128.59 503.92,129.43 		"/>
		<polygon class="st5" points="486.4,208.4 503.89,205.13 503.56,203.5 486.07,206.77 		"/>
		<polygon class="st5" points="487.1,211.81 504.59,208.53 504.26,206.9 486.77,210.17 		"/>
		<polygon class="st5" points="489.78,214.84 505.29,211.93 504.96,210.3 489.44,213.2 		"/>
		<polygon class="st5" points="492.98,220.45 506.52,217.92 506.19,216.28 492.65,218.82 		"/>
		<polygon class="st5" points="489.74,224.59 507.22,221.32 506.89,219.68 489.4,222.96 		"/>
		<path class="st4" d="M482.68,195.44c1,4.85,5.94,8.02,11.03,7.06c5.09-0.95,8.41-5.66,7.41-10.51c-1-4.85-5.94-8.02-11.03-7.06
			C484.99,185.88,481.68,190.59,482.68,195.44z"/>
		<path class="st5" d="M492.13,192.82l4.01-0.75l-0.58-2.83c-0.03-0.17-0.21-0.28-0.38-0.25c-0.18,0.03-0.29,0.2-0.26,0.37
			l0.46,2.22L492,192.2c-0.18,0.03-0.29,0.2-0.26,0.37C491.78,192.74,491.95,192.85,492.13,192.82z"/>
		<path class="st5" d="M497.18,198.77c0.18-0.03,0.29-0.2,0.26-0.37l-0.58-2.83l-4.01,0.75c-0.18,0.03-0.29,0.2-0.26,0.37
			c0.03,0.17,0.21,0.28,0.39,0.25l3.36-0.63l0.46,2.22C496.83,198.69,497.01,198.8,497.18,198.77z"/>
		<path class="st5" d="M492.85,194.89l5.08-0.95c0.18-0.03,0.29-0.2,0.26-0.37c-0.03-0.17-0.21-0.28-0.39-0.25l-4.44,0.83
			l-0.43-2.11c-0.04-0.17-0.21-0.28-0.39-0.25c-0.18,0.03-0.29,0.2-0.26,0.37L492.85,194.89z"/>
		<path class="st5" d="M489,200.3c0.18-0.03,0.29-0.2,0.26-0.37l-0.46-2.22l3.37-0.63c0.18-0.03,0.29-0.2,0.26-0.37
			c-0.03-0.17-0.21-0.28-0.39-0.25l-4.01,0.75l0.58,2.83C488.65,200.22,488.82,200.33,489,200.3z"/>
		<path class="st5" d="M487.31,193.72l4.01-0.75c0.18-0.03,0.29-0.2,0.26-0.37c-0.03-0.17-0.21-0.28-0.38-0.25l-3.37,0.63
			l-0.46-2.22c-0.03-0.17-0.21-0.28-0.38-0.25c-0.18,0.03-0.29,0.2-0.26,0.37L487.31,193.72z"/>
		<path class="st5" d="M491.62,197.49c0.18-0.03,0.29-0.2,0.26-0.37l-0.56-2.72l-5.08,0.95c-0.18,0.03-0.29,0.2-0.26,0.37
			c0.03,0.17,0.21,0.28,0.39,0.25l4.44-0.83l0.43,2.11C491.27,197.41,491.44,197.52,491.62,197.49z"/>
		<polygon class="st5" points="490.64,190.95 490.82,190.7 490.3,188.19 490.04,188.03 489.87,188.27 490.39,190.78 		"/>
		<polygon class="st5" points="491.92,190.71 492.09,190.46 491.57,187.95 491.32,187.79 491.14,188.03 491.66,190.54 		"/>
		<path class="st5" d="M491.44,193.1l0.63-0.12c0.59-0.11,0.98-0.66,0.86-1.22l-0.34-1.64c-0.12-0.56-0.69-0.93-1.28-0.82
			l-0.63,0.12c-0.59,0.11-0.98,0.66-0.86,1.22l0.34,1.64C490.28,192.84,490.85,193.21,491.44,193.1z"/>
		<path class="st5" d="M492.18,198.17l1.22-0.23c1.14-0.21,1.89-1.27,1.66-2.36l-0.65-3.17c-0.22-1.09-1.33-1.8-2.47-1.58
			l-1.22,0.23c-1.14,0.21-1.89,1.27-1.66,2.36l0.65,3.17C489.93,197.67,491.03,198.38,492.18,198.17z"/>
		<rect x="525.2" y="298.52" class="st27" width="3.64" height="1.42"/>
		<rect x="525.2" y="301.19" class="st27" width="3.64" height="1.42"/>
		<rect x="525.2" y="303.86" class="st27" width="3.64" height="1.43"/>
		<rect x="525.2" y="306.54" class="st27" width="3.64" height="1.43"/>
		<rect x="525.2" y="309.21" class="st27" width="3.64" height="1.42"/>
		<rect x="525.2" y="311.88" class="st27" width="3.64" height="1.42"/>
		<rect x="525.2" y="317.23" class="st27" width="3.64" height="1.43"/>
		<rect x="525.2" y="319.9" class="st27" width="3.64" height="1.43"/>
		<rect x="525.2" y="322.57" class="st27" width="3.64" height="1.43"/>
		<rect x="525.2" y="325.25" class="st27" width="3.64" height="1.42"/>
	</g>
	<path class="st28" d="M107.01,382.67c-2.48,3.05-5.53,4.56-9.17,4.56c-5.67,0-10.31-3.17-13.91-9.52
		c-3.6-6.35-5.41-13.87-5.41-22.56c0-9.87,2.04-17.85,6.11-23.97c4.07-6.12,8.89-9.18,14.45-9.18c2.66,0,5.03,0.66,7.1,1.96
		c0.66,0.4,1.17,0.59,1.52,0.59c0.51,0,0.93-0.44,1.28-1.33c0.34-0.82,0.92-1.22,1.73-1.22h0.51l1.31,0.08
		c0.89,0.13,1.44,0.72,1.66,1.77l2.63,12.52c0.28,1.29,0.41,2.16,0.41,2.6c0,0.93-0.72,1.38-2.18,1.38c-1.44,0-2.35-0.2-2.77-0.59
		c-0.41-0.39-1.24-1.77-2.48-4.15c-1.65-3.19-3.1-5.42-4.35-6.67c-1.25-1.25-2.59-1.88-4.03-1.88c-3.77,0-5.66,2.86-5.66,8.56v42.22
		c0,3.09,1.04,4.63,3.11,4.63c2.27,0,3.39-1.54,3.39-4.63v-20.56c0-1.33-0.49-2.2-1.46-2.59c-1.06-0.42-1.58-1.27-1.58-2.56
		c0-1.4,0.14-2.23,0.41-2.5c0.28-0.28,0.87-0.42,1.77-0.42h17.47c0.84,0,1.42,0.15,1.7,0.43c0.3,0.3,0.44,0.95,0.44,1.97
		c0,1.07-0.08,1.8-0.27,2.16c-0.18,0.38-0.61,0.67-1.3,0.91c-0.99,0.34-1.48,1.06-1.48,2.16v26.75c0,1.61-0.11,2.6-0.32,3.02
		c-0.23,0.4-0.8,0.6-1.73,0.6c-0.86,0-1.46-0.05-1.85-0.17c-0.37-0.12-0.89-0.48-1.55-1.09
		C110.7,384.27,108.86,383.17,107.01,382.67z"/>
	<path class="st28" d="M138.55,343.26c0.32-0.63,0.73-1.73,1.2-3.32c1.04-3.41,2.07-5.56,3.07-6.42c1.01-0.87,2.11-1.3,3.32-1.3
		c1.66,0,2.9,0.75,3.75,2.24c0.83,1.49,1.25,3.37,1.25,5.62c0,4.85-1.44,7.28-4.29,7.28c-1.44,0-2.53-0.81-3.29-2.4
		c-0.48-0.93-0.96-1.38-1.45-1.38c-1.24,0-1.86,1.3-1.86,3.89v31.44c0,1.01,0.48,1.73,1.44,2.21c0.96,0.44,1.44,1.15,1.44,2.16v1.77
		c0,0.62-0.07,1.02-0.23,1.19c-0.16,0.17-0.59,0.26-1.3,0.26h-15.54c-1.07,0-1.61-0.48-1.61-1.45v-2.17c0-0.72,0.24-1.21,0.7-1.45
		c0.94-0.44,1.41-1.13,1.41-2.04v-39.6c0-0.9-0.32-1.54-0.99-1.93c-0.7-0.39-1.11-0.7-1.21-0.93c-0.11-0.21-0.17-0.9-0.17-2.03
		c0-0.94,0.14-1.53,0.44-1.77c0.28-0.23,0.77-0.35,1.45-0.35h11.12c0.52,0,0.87,0.13,1.07,0.42c0.18,0.27,0.28,0.94,0.28,1.99
		V343.26z"/>
	<path class="st28" d="M167.53,358.89v16.07c0,2.13,0.44,3.8,1.3,4.99c0.87,1.21,1.99,1.81,3.34,1.81c2.1,0,3.77-0.85,5.03-2.54
		c1.25-1.7,1.92-4.01,2-6.95c0.03-1.58,0.18-2.52,0.48-2.85c0.28-0.31,1.3-0.47,3.01-0.47c1.49,0,2.44,0.15,2.83,0.43
		c0.41,0.3,0.61,1.02,0.61,2.17c0,4.04-1.38,7.64-4.13,10.79c-2.76,3.15-6.41,4.73-10.95,4.73c-5.21,0-9.63-2.26-13.26-6.75
		c-3.63-4.5-5.45-11.26-5.45-20.32c0-9.05,1.68-15.93,5.04-20.67c3.37-4.74,7.77-7.1,13.22-7.1c4.67,0,8.43,2,11.28,5.99
		c2.83,3.99,4.25,9.66,4.25,17.01v3.66H167.53L167.53,358.89z M173.19,353.9v-12.98c0-2.46-0.93-3.69-2.8-3.69
		c-1.9,0-2.86,1.23-2.86,3.69v12.98H173.19z"/>
	<path class="st28" d="M205.37,358.89v16.07c0,2.13,0.44,3.8,1.3,4.99c0.87,1.21,1.99,1.81,3.34,1.81c2.1,0,3.77-0.85,5.03-2.54
		c1.25-1.7,1.92-4.01,2-6.95c0.03-1.58,0.18-2.52,0.48-2.85c0.28-0.31,1.3-0.47,3.01-0.47c1.49,0,2.44,0.15,2.83,0.43
		c0.41,0.3,0.61,1.02,0.61,2.17c0,4.04-1.38,7.64-4.13,10.79c-2.76,3.15-6.41,4.73-10.95,4.73c-5.21,0-9.63-2.26-13.26-6.75
		c-3.63-4.5-5.45-11.26-5.45-20.32c0-9.05,1.68-15.93,5.04-20.67c3.37-4.74,7.77-7.1,13.22-7.1c4.67,0,8.43,2,11.28,5.99
		c2.83,3.99,4.25,9.66,4.25,17.01v3.66H205.37L205.37,358.89z M211.03,353.9v-12.98c0-2.46-0.93-3.69-2.8-3.69
		c-1.9,0-2.86,1.23-2.86,3.69v12.98H211.03z"/>
	<path class="st28" d="M243.62,338.1c3.29-3.91,7.05-5.87,11.28-5.87c2.87,0,5.08,0.89,6.62,2.66c1.53,1.77,2.3,3.99,2.3,6.67v37.68
		c0,0.85,0.34,1.49,1.01,1.93c0.62,0.36,0.93,1.3,0.93,2.83c0,1.19-0.1,1.92-0.31,2.16c-0.2,0.23-0.63,0.35-1.3,0.35h-11.56
		c-1.65-1.34-2.46-3.09-2.46-5.23v-37.44c0-2.05-0.9-3.07-2.69-3.07c-1.17,0-2.45,0.58-3.82,1.73v36.74c0,0.95,0.48,1.68,1.42,2.2
		c0.58,0.32,0.86,0.9,0.86,1.73v2.01c0,0.89-0.68,1.33-2.01,1.33H229.3c-0.72,0-1.17-0.09-1.37-0.3c-0.18-0.2-0.28-0.68-0.28-1.48
		v-1.45c0-0.77,0.24-1.3,0.73-1.61c0.65-0.44,1.07-0.86,1.27-1.26c0.18-0.39,0.28-1.25,0.28-2.59v-38.44c0-0.91-0.46-1.58-1.41-2
		c-0.52-0.24-0.79-0.66-0.79-1.26v-2.11c0-0.82,0.38-1.22,1.15-1.22h13.45c0.58,0,0.94,0.08,1.07,0.23
		c0.14,0.16,0.21,0.48,0.21,0.98V338.1z"/>
	<path class="st28" d="M295.89,322h2.14c0.49,0,0.86,0.17,1.11,0.54c0.24,0.35,0.42,1.3,0.54,2.85l0.94,12.64
		c0.03,0.26,0.04,0.51,0.04,0.75c0,0.91-0.17,1.56-0.49,1.92c-0.34,0.36-1,0.55-2,0.55c-1.21,0-2.06-0.3-2.52-0.9
		c-0.46-0.6-0.93-2.04-1.37-4.3c-1.1-5.72-2.68-8.58-4.72-8.58c-1.7,0-2.55,2.05-2.55,6.17v44.27c0,2.94,0.9,4.4,2.69,4.4
		c2.27,0,3.55-2.44,3.82-7.34c0.08-1.41,0.37-2.4,0.87-2.95c0.49-0.55,1.51-0.82,3.04-0.82c1.15,0,1.96,0.2,2.42,0.6
		c0.45,0.42,0.68,1.21,0.68,2.38c0,3.75-1.18,6.86-3.53,9.33c-2.37,2.48-5.31,3.72-8.81,3.72c-3.41,0-6.39-1.03-8.98-3.1
		c-2.58-2.08-4.8-5.65-6.69-10.72c-1.87-5.07-2.82-11.56-2.82-19.48c0-7.48,0.79-13.45,2.37-17.92s3.59-7.92,6.04-10.35
		c2.45-2.43,5.31-3.65,8.57-3.66c1.97,0,3.69,0.51,5.14,1.53c0.55,0.36,0.96,0.54,1.24,0.54c0.32,0,0.79-0.36,1.39-1.09
		C294.97,322.32,295.45,322,295.89,322z"/>
	<path class="st28" d="M324.81,348.42v-7.62c0-2.11-0.9-3.17-2.7-3.17c-2.48,0-3.72,1.58-3.72,4.77c0,1.8-0.21,3.07-0.63,3.83
		c-0.42,0.76-1.38,1.42-2.87,1.96c-1.49,0.54-3.1,0.81-4.79,0.81c-3.48,0-5.22-1.79-5.22-5.34c0-3.36,1.52-6.11,4.56-8.23
		c3.04-2.12,7-3.18,11.9-3.18c3.22,0,6.11,0.42,8.69,1.26c2.58,0.83,4.62,2.25,6.15,4.24c1.53,1.99,2.31,4.17,2.32,6.56v35.88
		c0.06,0.19,0.46,0.58,1.21,1.18c0.55,0.39,0.82,0.97,0.82,1.73c0,1.06-0.16,1.8-0.45,2.23c-0.31,0.44-1.04,0.83-2.2,1.21
		c-1.17,0.36-2.63,0.55-4.39,0.55c-2.13,0-3.91-0.38-5.34-1.13c-1.44-0.75-2.53-2.21-3.34-4.4c-2.39,2.36-4.34,3.88-5.82,4.54
		c-1.49,0.66-3.01,0.99-4.58,0.99c-3.49,0-6.2-1.3-8.11-3.91c-1.91-2.6-2.87-6.87-2.87-12.79c0-5.92,0.9-10.03,2.69-12.31
		c1.79-2.3,5.28-4.42,10.48-6.35C319.9,350.51,322.64,349.41,324.81,348.42L324.81,348.42z M324.81,353.53
		c-3.13,1.3-4.98,2.78-5.59,4.4c-0.61,1.64-0.91,5.32-0.91,11.03c0,4.21,0.25,6.87,0.75,7.99c0.49,1.11,1.35,1.66,2.56,1.66
		c2.13,0,3.2-1.68,3.2-5.02V353.53z"/>
	<path class="st28" d="M358.6,343.26c0.32-0.63,0.73-1.73,1.2-3.32c1.04-3.41,2.07-5.56,3.07-6.42c1.01-0.87,2.11-1.3,3.32-1.3
		c1.66,0,2.9,0.75,3.75,2.24c0.83,1.49,1.25,3.37,1.25,5.62c0,4.85-1.44,7.28-4.29,7.28c-1.44,0-2.53-0.81-3.29-2.4
		c-0.48-0.93-0.96-1.38-1.45-1.38c-1.24,0-1.86,1.3-1.86,3.89v31.44c0,1.01,0.48,1.73,1.44,2.21c0.96,0.44,1.44,1.15,1.44,2.16v1.77
		c0,0.62-0.07,1.02-0.23,1.19c-0.16,0.17-0.59,0.26-1.3,0.26H346.1c-1.07,0-1.61-0.48-1.61-1.45v-2.17c0-0.72,0.24-1.21,0.7-1.45
		c0.94-0.44,1.41-1.13,1.41-2.04v-39.6c0-0.9-0.32-1.54-0.99-1.93c-0.7-0.39-1.11-0.7-1.21-0.93c-0.11-0.21-0.17-0.9-0.17-2.03
		c0-0.94,0.14-1.53,0.44-1.77c0.28-0.23,0.77-0.35,1.45-0.35h11.12c0.52,0,0.87,0.13,1.07,0.42c0.18,0.27,0.28,0.94,0.28,1.99
		V343.26z"/>
	<path class="st28" d="M387.58,358.89v16.07c0,2.13,0.44,3.8,1.3,4.99c0.87,1.21,1.99,1.81,3.34,1.81c2.1,0,3.77-0.85,5.03-2.54
		c1.25-1.7,1.92-4.01,2-6.95c0.03-1.58,0.18-2.52,0.48-2.85c0.28-0.31,1.3-0.47,3.01-0.47c1.49,0,2.44,0.15,2.83,0.43
		c0.41,0.3,0.61,1.02,0.61,2.17c0,4.04-1.38,7.64-4.13,10.79c-2.76,3.15-6.41,4.73-10.95,4.73c-5.21,0-9.63-2.26-13.26-6.75
		c-3.63-4.5-5.45-11.26-5.45-20.32c0-9.05,1.68-15.93,5.04-20.67c3.37-4.74,7.77-7.1,13.22-7.1c4.67,0,8.43,2,11.28,5.99
		c2.83,3.99,4.25,9.66,4.25,17.01v3.66H387.58L387.58,358.89z M393.24,353.9v-12.98c0-2.46-0.93-3.69-2.8-3.69
		c-1.9,0-2.86,1.23-2.86,3.69v12.98H393.24z"/>
	<path class="st29" d="M243.06,421.53c0-1.11-0.22-2.16-0.66-3.13c-0.44-0.97-1.03-1.82-1.78-2.53c-0.75-0.72-1.63-1.28-2.63-1.7
		c-1-0.42-2.06-0.63-3.19-0.63h-8.38v42.38h5.57v-11.44h2.81c1.13,0,2.19-0.22,3.19-0.66c1-0.44,1.88-1.01,2.63-1.73
		c0.75-0.72,1.34-1.55,1.78-2.5c0.44-0.95,0.66-1.97,0.66-3.04V421.53L243.06,421.53z M237.56,439.17h-5.57v-20.33h5.57V439.17z"/>
	<path class="st29" d="M256.13,423.73c-1.17,0-2.25,0.21-3.25,0.63c-1,0.42-1.88,0.99-2.63,1.73c-0.75,0.74-1.33,1.6-1.75,2.59
		c-0.42,0.99-0.63,2.05-0.63,3.16v16.39c0,1.11,0.21,2.16,0.63,3.13c0.42,0.97,1,1.82,1.75,2.53c0.75,0.72,1.63,1.28,2.63,1.7
		c1,0.42,2.08,0.63,3.25,0.63c1.17,0,2.26-0.21,3.28-0.63c1.02-0.42,1.91-0.98,2.66-1.7c0.75-0.72,1.34-1.56,1.78-2.53
		c0.44-0.97,0.66-2.02,0.66-3.13v-2.92h-5.57v5.31h-5.57v-10.61h11.13v-8.17c0-1.15-0.22-2.23-0.66-3.22
		c-0.44-0.99-1.03-1.85-1.78-2.56c-0.75-0.71-1.64-1.28-2.66-1.7C258.39,423.94,257.29,423.73,256.13,423.73L256.13,423.73z
		 M253.37,429.46h5.57v5.31h-5.57V429.46z"/>
	<path class="st29" d="M277.45,456.22c1.17,0,2.26-0.21,3.28-0.63c1.02-0.42,1.91-0.98,2.66-1.7c0.75-0.72,1.34-1.56,1.78-2.53
		c0.44-0.97,0.66-2.02,0.66-3.13v-2.92c0-1.11-0.22-2.17-0.66-3.16c-0.44-0.99-1.03-1.85-1.78-2.56c-0.75-0.72-1.64-1.28-2.66-1.7
		c-1.02-0.42-2.12-0.63-3.28-0.63c-0.71,0-1.34-0.26-1.91-0.77c-0.56-0.52-0.84-1.13-0.84-1.85v-5.19h5.57v5.31h5.57v-2.92
		c0-1.11-0.22-2.17-0.66-3.16c-0.44-0.99-1.03-1.86-1.78-2.59c-0.75-0.73-1.64-1.31-2.66-1.73c-1.02-0.42-2.12-0.63-3.28-0.63
		c-1.17,0-2.25,0.21-3.25,0.63c-1,0.42-1.88,0.99-2.63,1.73c-0.75,0.74-1.33,1.6-1.75,2.59c-0.42,0.99-0.63,2.05-0.63,3.16v2.8
		c0,1.11,0.21,2.16,0.63,3.13c0.42,0.97,1,1.82,1.75,2.53c0.75,0.72,1.63,1.28,2.63,1.7c1,0.42,2.08,0.63,3.25,0.63
		c0.83,0,1.51,0.27,2.03,0.8c0.52,0.54,0.78,1.16,0.78,1.88v5.31h-5.57v-6.26h-5.5v3.87c0,1.11,0.21,2.16,0.63,3.13
		c0.42,0.97,1,1.82,1.75,2.53c0.75,0.72,1.63,1.28,2.63,1.7C275.2,456.01,276.28,456.22,277.45,456.22z"/>
	<path class="st29" d="M296.96,456.22v-26.76h5.57v-5.31h-5.57v-5.31h-5.57v32.19c0,1.51,0.55,2.75,1.66,3.73
		C294.15,455.73,295.46,456.22,296.96,456.22z"/>
	<path class="st29" d="M336.1,421.17c0-1.11-0.22-2.16-0.66-3.13c-0.44-0.97-1.03-1.83-1.78-2.56c-0.75-0.73-1.64-1.31-2.66-1.73
		c-1.02-0.42-2.12-0.63-3.28-0.63c-1.17,0-2.25,0.21-3.25,0.63c-1,0.42-1.88,0.99-2.63,1.73c-0.75,0.74-1.33,1.59-1.75,2.56
		c-0.42,0.97-0.63,2.02-0.63,3.13v27.06c0,1.11,0.21,2.16,0.63,3.13c0.42,0.97,1,1.82,1.75,2.53c0.75,0.72,1.63,1.28,2.63,1.7
		c1,0.42,2.08,0.63,3.25,0.63c1.17,0,2.26-0.21,3.28-0.63c1.02-0.42,1.91-0.98,2.66-1.7c0.75-0.72,1.34-1.56,1.78-2.53
		c0.44-0.97,0.66-2.02,0.66-3.13v-9.12h-5.57v11.5h-5.57v-31.77h5.57v5.31h5.57V421.17z"/>
	<path class="st29" d="M357.42,448.23v-16.39c0-1.11-0.22-2.17-0.66-3.16c-0.44-0.99-1.03-1.86-1.78-2.59
		c-0.75-0.73-1.64-1.31-2.66-1.73c-1.02-0.42-2.12-0.63-3.28-0.63s-2.25,0.21-3.25,0.63c-1,0.42-1.88,0.99-2.63,1.73
		c-0.75,0.74-1.33,1.6-1.75,2.59c-0.42,0.99-0.63,2.05-0.63,3.16v16.39c0,1.11,0.21,2.16,0.63,3.13c0.42,0.97,1,1.82,1.75,2.53
		c0.75,0.72,1.63,1.28,2.63,1.7c1,0.42,2.08,0.63,3.25,0.63s2.26-0.21,3.28-0.63c1.02-0.42,1.91-0.98,2.66-1.7
		c0.75-0.72,1.34-1.56,1.78-2.53C357.2,450.39,357.42,449.35,357.42,448.23L357.42,448.23z M346.29,429.46h5.57v21.16h-5.57V429.46z
		"/>
	<path class="st29" d="M372.37,424.15h-8.38v31.77h5.57v-26.47h5.57v26.47h5.5v-23.84c0-1.11-0.22-2.16-0.66-3.13
		c-0.44-0.97-1.03-1.82-1.78-2.53c-0.75-0.71-1.63-1.27-2.63-1.67C374.56,424.35,373.49,424.15,372.37,424.15z"/>
	<path class="st29" d="M391.88,456.22v-26.76h5.57v-5.31h-5.57v-5.31h-5.57v32.19c0,1.51,0.55,2.75,1.66,3.73
		C389.07,455.73,390.38,456.22,391.88,456.22z"/>
	<path class="st29" d="M402.76,432.14v23.78h5.57v-26.47h5.57v-5.31h-2.75c-1.13,0-2.2,0.21-3.22,0.63
		c-1.02,0.42-1.91,0.98-2.66,1.7c-0.75,0.71-1.35,1.56-1.81,2.53C402.99,429.98,402.76,431.03,402.76,432.14z"/>
	<path class="st29" d="M434.96,448.23v-16.39c0-1.11-0.22-2.17-0.66-3.16c-0.44-0.99-1.03-1.86-1.78-2.59
		c-0.75-0.73-1.64-1.31-2.66-1.73c-1.02-0.42-2.12-0.63-3.28-0.63s-2.25,0.21-3.25,0.63c-1,0.42-1.88,0.99-2.63,1.73
		c-0.75,0.74-1.33,1.6-1.75,2.59c-0.42,0.99-0.63,2.05-0.63,3.16v16.39c0,1.11,0.21,2.16,0.63,3.13c0.42,0.97,1,1.82,1.75,2.53
		c0.75,0.72,1.63,1.28,2.63,1.7c1,0.42,2.08,0.63,3.25,0.63s2.26-0.21,3.28-0.63c1.02-0.42,1.91-0.98,2.66-1.7
		c0.75-0.72,1.34-1.56,1.78-2.53C434.74,450.39,434.96,449.35,434.96,448.23L434.96,448.23z M423.83,429.46h5.57v21.16h-5.57V429.46
		z"/>
	<path class="st29" d="M446.09,456.22v-42.68h-5.57v37.49c0,1.51,0.55,2.75,1.66,3.73C443.29,455.73,444.59,456.22,446.09,456.22z"
		/>
</g>
</svg>
